<?xml version="1.0" standalone="no"?>
<!DOCTYPE svg PUBLIC "-//W3C//DTD SVG 20010904//EN"
 "http://www.w3.org/TR/2001/REC-SVG-20010904/DTD/svg10.dtd">
<svg version="1.0" xmlns="http://www.w3.org/2000/svg"
 width="392.000000pt" height="391.000000pt" viewBox="0 0 392.000000 391.000000"
 preserveAspectRatio="xMidYMid meet">

<g transform="translate(0.000000,391.000000) scale(0.100000,-0.100000)"
fill="#000000" stroke="none">
<path d="M1801 3899 c-287 -22 -634 -135 -866 -282 -188 -119 -408 -320 -534
-486 -178 -234 -298 -500 -356 -786 -112 -552 17 -1119 354 -1565 90 -118 276
-302 397 -392 618 -458 1458 -510 2127 -132 294 166 587 461 748 752 374 674
315 1507 -150 2122 -81 107 -270 296 -378 378 -302 229 -657 362 -1043 392
-147 11 -147 11 -299 -1z m340 -19 c618 -61 1152 -397 1482 -930 208 -337 307
-777 267 -1181 -80 -782 -617 -1437 -1366 -1664 -206 -63 -319 -78 -564 -78
-245 0 -358 15 -564 78 -599 181 -1082 653 -1276 1245 -229 699 -50 1450 472
1971 409 409 981 615 1549 559z"/>
<path d="M1960 2450 c0 -144 -4 -270 -10 -284 -7 -21 -16 -26 -42 -26 -30 0
-31 -1 -16 -16 19 -20 62 -21 83 -4 22 19 23 575 0 584 -13 5 -15 -28 -15
-254z"/>
<path d="M1645 2675 c44 -71 205 -298 205 -288 0 12 -185 281 -208 303 -12 11
-11 7 3 -15z"/>
<path d="M2399 2517 c41 -82 34 -226 -14 -299 -49 -73 -159 -102 -250 -64
l-40 16 25 -20 c72 -57 177 -64 250 -16 56 37 82 93 88 189 5 92 -9 153 -49
199 l-28 33 18 -38z"/>
<path d="M1610 2366 c0 -91 -4 -176 -10 -191 -5 -14 -21 -30 -35 -35 -30 -11
-32 -26 -5 -35 32 -10 61 5 75 40 22 50 22 313 1 354 -9 17 -19 31 -21 31 -3
0 -5 -74 -5 -164z"/>
<path d="M2183 2520 c-31 -12 -43 -40 -50 -113 -6 -65 8 -137 30 -156 11 -8
13 5 9 72 -7 129 25 180 102 165 32 -6 23 20 -11 33 -29 11 -51 11 -80 -1z"/>
<path d="M988 1443 c-3 -282 -7 -299 -59 -310 -40 -8 -31 -27 13 -31 29 -2 40
2 57 24 21 26 21 35 19 297 -2 196 -6 271 -15 274 -8 3 -12 -62 -15 -254z"/>
<path d="M2607 1583 c-4 -3 -7 -108 -7 -233 0 -214 -1 -228 -22 -270 -17 -31
-36 -51 -68 -68 -41 -21 -55 -23 -153 -20 -104 3 -108 3 -87 -14 49 -40 211
-37 283 5 77 45 82 65 85 343 2 196 0 243 -11 252 -8 7 -17 9 -20 5z"/>
<path d="M1710 1540 c16 -29 15 -352 -1 -382 -6 -10 -23 -21 -40 -25 -34 -7
-37 -18 -8 -33 31 -17 75 4 88 42 6 17 11 100 11 185 0 159 -7 191 -46 224
-16 13 -16 12 -4 -11z"/>
<path d="M2129 1539 c13 -34 15 -77 13 -251 l-2 -148 -123 0 c-67 0 -138 4
-156 10 -47 13 -49 7 -5 -21 32 -19 54 -23 165 -27 94 -3 133 -1 144 8 12 10
15 42 15 179 0 177 -8 227 -41 257 -20 18 -20 18 -10 -7z"/>
<path d="M3046 1499 c9 -24 14 -68 12 -103 l-3 -61 -147 -3 c-82 -1 -148 -7
-148 -12 0 -5 11 -22 24 -37 21 -24 24 -25 23 -8 -2 19 5 20 133 23 151 3 160
7 160 72 0 51 -26 133 -49 154 -19 17 -19 17 -5 -25z"/>
<path d="M1188 1524 c-16 -5 -18 -22 -18 -180 0 -161 -2 -176 -20 -194 -11
-11 -29 -20 -40 -20 -13 0 -18 -5 -14 -15 14 -37 83 -23 103 22 6 14 11 86 11
177 0 177 2 182 75 174 47 -6 58 4 25 22 -23 12 -98 21 -122 14z"/>
<path d="M1478 1519 l-27 -10 -3 -169 c-3 -148 -5 -170 -22 -189 -11 -12 -27
-21 -38 -21 -24 0 -23 -17 1 -30 26 -13 66 2 83 32 8 15 14 78 16 181 5 178 8
184 83 174 48 -6 51 9 4 29 -39 16 -59 17 -97 3z"/>
<path d="M1851 1519 c-19 -8 -22 -12 -12 -22 17 -17 200 -17 193 1 -2 7 -13
17 -23 22 -23 13 -126 12 -158 -1z"/>
<path d="M2784 1496 c-36 -36 -45 -76 -18 -76 8 0 31 16 49 36 32 34 37 36 88
32 37 -2 53 1 50 8 -7 18 -51 34 -94 34 -33 0 -48 -7 -75 -34z"/>
<path d="M2350 1492 c-51 -51 -51 -171 0 -217 21 -19 21 -19 11 9 -24 63 -4
163 37 185 12 6 37 11 56 11 29 0 36 4 36 20 0 18 -7 20 -56 20 -48 0 -60 -4
-84 -28z"/>
<path d="M1995 1385 c-5 -2 -27 -6 -48 -10 -21 -3 -47 -15 -58 -26 -21 -21
-26 -78 -7 -97 18 -18 30 -15 23 6 -9 31 29 69 85 82 38 9 50 16 50 31 0 18
-18 23 -45 14z"/>
<path d="M3048 1205 c12 -63 -190 -91 -290 -39 -31 16 -32 16 -19 0 47 -57
185 -81 275 -49 56 20 72 39 63 75 -9 34 -36 45 -29 13z"/>
<path d="M2290 1165 c21 -26 79 -45 133 -45 48 0 57 3 62 21 4 11 5 22 3 24
-1 1 -28 -2 -60 -8 -45 -8 -65 -7 -102 5 -34 11 -44 12 -36 3z"/>
</g>
</svg>
